<svg width="64" height="64" viewBox="0 0 64 64" fill="none" xmlns="http://www.w3.org/2000/svg">
<path fill-rule="evenodd" clip-rule="evenodd" d="M19.2082 31.6915C19.2082 38.4099 24.6546 43.8563 31.373 43.8563C38.0914 43.8563 43.5378 38.4099 43.5378 31.6915C43.5378 24.9731 38.0914 19.5267 31.373 19.5267C24.6546 19.5267 19.2082 24.9731 19.2082 31.6915Z" fill="#FED503"/>
<path fill-rule="evenodd" clip-rule="evenodd" d="M53.2152 29.7541H48.772C47.7304 29.7541 46.8792 30.6053 46.8792 31.6469V31.7365C46.8792 32.7781 47.7304 33.6293 48.772 33.6293H53.2152C54.2568 33.6293 55.108 32.7781 55.108 31.7365V31.6469C55.108 30.6053 54.2568 29.7541 53.2152 29.7541" fill="#FED503"/>
<path fill-rule="evenodd" clip-rule="evenodd" d="M15.8653 31.736V31.6464C15.8653 30.6048 15.0141 29.7536 13.9725 29.7536H9.52929C8.48769 29.7536 7.63489 30.6048 7.63489 31.6464V31.736C7.63489 32.7776 8.48769 33.6288 9.52929 33.6288H13.9725C15.0141 33.6288 15.8653 32.7776 15.8653 31.736" fill="#FED503"/>
<path fill-rule="evenodd" clip-rule="evenodd" d="M43.2793 11.1571L43.2025 11.1123C42.3001 10.5923 41.1369 10.9027 40.6153 11.8051L38.3945 15.6547C37.8729 16.5555 38.1849 17.7203 39.0857 18.2403L39.1641 18.2851C40.0649 18.8051 41.2297 18.4931 41.7497 17.5907L43.9721 13.7427C44.4921 12.8419 44.1801 11.6771 43.2793 11.1571" fill="#FED503"/>
<path fill-rule="evenodd" clip-rule="evenodd" d="M23.6574 45.1431L23.5806 45.0983C22.6782 44.5767 21.515 44.8887 20.995 45.7911L18.7726 49.6391C18.2526 50.5415 18.563 51.7047 19.4654 52.2247L19.5422 52.2711C20.4446 52.7911 21.6078 52.4791 22.1278 51.5767L24.3502 47.7287C24.8702 46.8263 24.5598 45.6631 23.6574 45.1431" fill="#FED503"/>
<path fill-rule="evenodd" clip-rule="evenodd" d="M41.7496 45.7907C41.2296 44.8899 40.0648 44.5779 39.164 45.0979L39.0856 45.1427C38.1848 45.6627 37.8728 46.8259 38.3944 47.7283L40.6168 51.5779C41.1368 52.4787 42.3 52.7907 43.2024 52.2707L43.2792 52.2243C44.1816 51.7043 44.492 50.5411 43.972 49.6387L41.7496 45.7907Z" fill="#FED503"/>
<path fill-rule="evenodd" clip-rule="evenodd" d="M20.9949 17.5915C21.5149 18.4939 22.6781 18.8043 23.5805 18.2843L23.6573 18.2395C24.5597 17.7195 24.8701 16.5563 24.3501 15.6539L22.1277 11.8059C21.6077 10.9035 20.4445 10.5915 19.5421 11.1131L19.4653 11.1579C18.5629 11.6779 18.2525 12.8411 18.7725 13.7435L20.9949 17.5915Z" fill="#FED503"/>
<path fill-rule="evenodd" clip-rule="evenodd" d="M17.2723 21.3134L13.4243 19.091C12.5219 18.571 11.3587 18.883 10.8387 19.7838L10.7939 19.8622C10.2723 20.763 10.5843 21.9278 11.4867 22.4478L15.3347 24.6702C16.2371 25.1902 17.4003 24.8782 17.9203 23.9774L17.9651 23.899C18.4867 22.9982 18.1731 21.8334 17.2723 21.3134" fill="#FED503"/>
<path fill-rule="evenodd" clip-rule="evenodd" d="M51.2583 40.9352L47.4087 38.7128C46.5079 38.1928 45.3447 38.5032 44.8247 39.4056L44.7799 39.4824C44.2583 40.3848 44.5703 41.548 45.4711 42.068L49.3207 44.2904C50.2231 44.8104 51.3863 44.5 51.9063 43.5992L51.9511 43.5208C52.4711 42.6184 52.1591 41.4552 51.2583 40.9352" fill="#FED503"/>
<path fill-rule="evenodd" clip-rule="evenodd" d="M17.9208 39.4056C17.3992 38.5048 16.2376 38.1928 15.3352 38.7128L11.4872 40.9352C10.5848 41.4552 10.2728 42.6184 10.7928 43.5208L10.8392 43.5992C11.3592 44.5 12.5224 44.8104 13.4232 44.2904L17.2728 42.0696C18.1736 41.548 18.4872 40.3848 17.9656 39.4824L17.9208 39.4056Z" fill="#FED503"/>
<path fill-rule="evenodd" clip-rule="evenodd" d="M44.8239 23.9766C45.3439 24.8774 46.5087 25.1894 47.4095 24.6694L51.2575 22.447C52.1599 21.927 52.4719 20.7638 51.9519 19.8614L51.9055 19.7846C51.3855 18.8822 50.2223 18.5718 49.3215 19.0918L45.4719 21.3126C44.5695 21.8342 44.2575 22.9974 44.7791 23.8998L44.8239 23.9766Z" fill="#FED503"/>
<path fill-rule="evenodd" clip-rule="evenodd" d="M31.3277 16.1845H31.4173C32.4589 16.1845 33.3101 15.3333 33.3101 14.2917V9.84847C33.3101 8.80687 32.4589 7.95407 31.4173 7.95407H31.3277C30.2861 7.95407 29.4349 8.80687 29.4349 9.84847V14.2917C29.4349 15.3333 30.2861 16.1845 31.3277 16.1845" fill="#FED503"/>
<path fill-rule="evenodd" clip-rule="evenodd" d="M31.4168 47.1978H31.3272C30.2856 47.1978 29.4344 48.049 29.4344 49.0906V53.5354C29.4344 54.5754 30.2856 55.4282 31.3272 55.4282H31.4168C32.4584 55.4282 33.3096 54.5754 33.3096 53.5354V49.0906C33.3096 48.049 32.4584 47.1978 31.4168 47.1978" fill="#FED503"/>
</svg>
