<svg width="64" height="64" viewBox="0 0 64 64" fill="none" xmlns="http://www.w3.org/2000/svg">
<path fill-rule="evenodd" clip-rule="evenodd" d="M50.1344 42.6574C49.9944 42.4094 49.7184 42.2734 49.4364 42.3094C48.6824 42.4094 47.9324 42.4614 47.2124 42.4614C38.0484 42.4614 30.5924 35.0054 30.5924 25.8434C30.5924 22.0314 31.9184 18.3094 34.3224 15.3574C34.5024 15.1354 34.5284 14.8274 34.3884 14.5794C34.2504 14.3314 33.9724 14.1954 33.6924 14.2314C24.8004 15.4214 18.0924 23.0914 18.0924 32.0734C18.0924 42.0014 26.1724 50.0794 36.0984 50.0794C41.5384 50.0794 46.6284 47.6574 50.0664 43.4354C50.2464 43.2134 50.2724 42.9054 50.1344 42.6574" fill="#FED503"/>
</svg>
