<svg width="64" height="64" viewBox="0 0 64 64" fill="none" xmlns="http://www.w3.org/2000/svg">
<path fill-rule="evenodd" clip-rule="evenodd" d="M60.5395 32.6853L57.6211 31.9557C56.9379 31.7845 56.2387 32.2037 56.0675 32.8885L56.0515 32.9461C55.8803 33.6309 56.3011 34.3301 56.9843 34.5013L59.9027 35.2293C60.5875 35.4005 61.2867 34.9813 61.4563 34.2981L61.4723 34.2389C61.6419 33.5557 61.2227 32.8565 60.5395 32.6853" fill="#FED503"/>
<path fill-rule="evenodd" clip-rule="evenodd" d="M57.0669 18.8414L57.0237 18.7998C56.5165 18.3086 55.7021 18.323 55.2109 18.8302L53.1213 20.9918C52.6301 21.499 52.6445 22.3134 53.1517 22.8046L53.1949 22.8462C53.7005 23.3358 54.5165 23.323 55.0061 22.8158L57.0973 20.6526C57.5869 20.1454 57.5741 19.331 57.0669 18.8414" fill="#FED503"/>
<path fill-rule="evenodd" clip-rule="evenodd" d="M41.3754 19.4078C41.569 20.0862 42.2826 20.4814 42.9594 20.2878L43.0186 20.2718C43.6954 20.0766 44.0922 19.3646 43.8986 18.6862L43.0714 15.795C42.8762 15.1166 42.1642 14.7214 41.4858 14.915L41.4282 14.931C40.7498 15.1246 40.3546 15.8382 40.5482 16.515L41.3754 19.4078Z" fill="#FED503"/>
<path fill-rule="evenodd" clip-rule="evenodd" d="M38.32 21.2414L36.1568 19.1502C35.6512 18.6606 34.8352 18.6734 34.3456 19.1806L34.304 19.2238C33.8144 19.731 33.8272 20.5454 34.3344 21.0366L36.4976 23.1278C37.0032 23.6174 37.8192 23.603 38.3088 23.0974L38.352 23.0526C38.8416 22.5454 38.8272 21.731 38.32 21.2414" fill="#FED503"/>
<path fill-rule="evenodd" clip-rule="evenodd" d="M57.4176 39.7072L55.2544 37.616C54.7488 37.1264 53.9328 37.1392 53.4432 37.6464L53.4016 37.6896C52.912 38.1968 52.9248 39.0112 53.432 39.5024L55.5936 41.5936C56.1008 42.0832 56.9168 42.0688 57.4064 41.5632L57.4496 41.5184C57.9392 41.0112 57.9248 40.1968 57.4176 39.7072" fill="#FED503"/>
<path fill-rule="evenodd" clip-rule="evenodd" d="M55.9769 27.5134C56.1705 28.1918 56.8825 28.587 57.5609 28.3934L60.4521 27.5662C61.1305 27.3726 61.5273 26.659 61.3337 25.9806L61.3161 25.923C61.1225 25.2462 60.4105 24.8494 59.7321 25.0446L56.8393 25.8718C56.1625 26.0654 55.7657 26.7774 55.9593 27.4558L55.9769 27.5134Z" fill="#FED503"/>
<path fill-rule="evenodd" clip-rule="evenodd" d="M48.3926 20.1806L48.4518 20.195C49.135 20.3662 49.8342 19.947 50.0054 19.2622L50.735 16.3454C50.9062 15.6606 50.487 14.9614 49.8022 14.7902L49.7446 14.7758C49.0598 14.6046 48.3606 15.0238 48.191 15.7086L47.4598 18.627C47.2902 19.3102 47.7094 20.0094 48.3926 20.1806" fill="#FED503"/>
<path fill-rule="evenodd" clip-rule="evenodd" d="M47.8739 22.3829C43.7539 21.3525 39.5859 23.6229 38.1523 27.5205C38.2339 27.5189 38.3123 27.5141 38.3939 27.5141C44.2915 27.5141 49.2371 31.6597 50.4755 37.1909C52.1043 36.0933 53.3507 34.4229 53.8643 32.3685C54.9683 27.9557 52.2851 23.4853 47.8739 22.3829" fill="#FED503"/>
<path fill-rule="evenodd" clip-rule="evenodd" d="M38.3934 29.6086C37.4894 29.6086 36.6142 29.7254 35.779 29.9446C34.2142 25.5078 29.9886 22.3302 25.019 22.3302C18.9278 22.3302 13.9534 27.1014 13.627 33.1094C13.2542 33.0614 12.8766 33.0262 12.491 33.0262C7.75185 33.0262 3.91025 36.8678 3.91025 41.607C3.91025 46.3446 7.75185 50.1878 12.491 50.1878H38.3934C43.8494 50.1878 48.3006 45.9398 48.6494 40.5702C48.6638 40.3478 48.683 40.1238 48.683 39.8982C48.683 34.215 44.075 29.6086 38.3934 29.6086" fill="#D0D2D3"/>
</svg>
