<svg width="64" height="64" viewBox="0 0 64 64" fill="none" xmlns="http://www.w3.org/2000/svg">
<path fill-rule="evenodd" clip-rule="evenodd" d="M40.023 26.9877C39.1606 26.9877 38.3254 27.0997 37.527 27.3077C36.0342 23.0741 32.0006 20.0389 27.2566 20.0389C21.4438 20.0389 16.695 24.5941 16.3846 30.3285C16.0278 30.2821 15.6678 30.2501 15.2998 30.2501C10.7766 30.2501 7.10942 33.9157 7.10942 38.4389C7.10942 42.9621 10.7766 46.6293 15.2998 46.6293H40.023C45.231 46.6293 49.479 42.5733 49.8118 37.4501C49.8246 37.2373 49.8438 37.0245 49.8438 36.8085C49.8438 31.3829 45.447 26.9877 40.023 26.9877" fill="#D0D2D3"/>
<path fill-rule="evenodd" clip-rule="evenodd" d="M61.2777 32.5329C61.1833 32.3649 60.9945 32.2705 60.8025 32.2961C60.2873 32.3649 59.7769 32.4001 59.2841 32.4001C53.0329 32.4001 47.9481 27.3137 47.9481 21.0625C47.9481 18.4641 48.8505 15.9233 50.4905 13.9089C50.6137 13.7585 50.6329 13.5489 50.5369 13.3793C50.4425 13.2113 50.2521 13.1169 50.0617 13.1409C44.0617 13.9441 39.5289 19.0721 39.4297 25.1105C39.6281 25.1009 39.8249 25.0945 40.0233 25.0945C46.4809 25.0945 51.7369 30.3489 51.7369 36.8081C51.7369 37.0737 51.7257 37.3345 51.7081 37.5953C55.4153 37.5953 58.8873 35.9425 61.2313 33.0641C61.3529 32.9121 61.3721 32.7025 61.2777 32.5329" fill="#FED503"/>
</svg>
