<svg width="64" height="64" viewBox="0 0 64 64" fill="none" xmlns="http://www.w3.org/2000/svg">
<path fill-rule="evenodd" clip-rule="evenodd" d="M44.8231 16.8853C43.9607 16.8853 43.1239 16.9973 42.3271 17.2053C40.8343 12.9717 36.8007 9.93808 32.0567 9.93808C26.2439 9.93808 21.4951 14.4917 21.1831 20.2261C20.8279 20.1813 20.4679 20.1477 20.0983 20.1477C15.5751 20.1477 11.9095 23.8133 11.9095 28.3365C11.9095 32.8597 15.5751 36.5269 20.0983 36.5269H44.8231C50.2471 36.5269 54.6439 32.1301 54.6439 26.7061C54.6439 21.2821 50.2471 16.8853 44.8231 16.8853" fill="#D0D2D3"/>
<path fill-rule="evenodd" clip-rule="evenodd" d="M34.2802 40.3758C34.2802 40.3758 31.3122 41.8382 30.8258 42.1438C30.3378 42.451 30.1538 42.5918 29.9138 42.9438C29.1634 44.0494 29.4498 45.555 30.5554 46.3054C31.661 47.0574 33.1666 46.771 33.917 45.6654C34.1618 45.3054 34.2034 45.107 34.3282 44.4974C34.4514 43.8894 34.661 40.6318 34.661 40.6318C34.6818 40.3742 34.5122 40.2574 34.2802 40.3758" fill="#26A9E0"/>
<path fill-rule="evenodd" clip-rule="evenodd" d="M34.2802 48.3736C34.2802 48.3736 31.3122 49.8376 30.8258 50.1416C30.3378 50.4488 30.1538 50.5896 29.9138 50.9416C29.1634 52.0472 29.4498 53.5528 30.5554 54.3048C31.661 55.0552 33.1666 54.7688 33.917 53.6632C34.1618 53.3032 34.2034 53.1048 34.3282 52.4952C34.4514 51.8872 34.661 48.6312 34.661 48.6312C34.6818 48.372 34.5122 48.2552 34.2802 48.3736" fill="#26A9E0"/>
</svg>
