<svg width="64" height="64" viewBox="0 0 64 64" fill="none" xmlns="http://www.w3.org/2000/svg">
<path fill-rule="evenodd" clip-rule="evenodd" d="M43.223 16.8853C42.3606 16.8853 41.5238 16.9973 40.727 17.2053C39.2342 12.9717 35.2006 9.93808 30.4566 9.93808C24.6438 9.93808 19.895 14.4917 19.583 20.2261C19.2278 20.1813 18.8678 20.1477 18.4982 20.1477C13.975 20.1477 10.3094 23.8133 10.3094 28.3365C10.3094 32.8597 13.975 36.5269 18.4982 36.5269H43.223C48.647 36.5269 53.0438 32.1301 53.0438 26.7061C53.0438 21.2821 48.647 16.8853 43.223 16.8853" fill="#D0D2D3"/>
<path fill-rule="evenodd" clip-rule="evenodd" d="M26.4637 40.3758C26.4637 40.3758 23.4957 41.8382 23.0093 42.1438C22.5213 42.451 22.3373 42.5918 22.0973 42.9438C21.3453 44.0494 21.6333 45.555 22.7389 46.3054C23.8445 47.0574 25.3485 46.771 26.1005 45.6654C26.3453 45.3054 26.3869 45.107 26.5101 44.4974C26.6349 43.8894 26.8429 40.6318 26.8429 40.6318C26.8653 40.3742 26.6957 40.2574 26.4637 40.3758" fill="#26A9E0"/>
<path fill-rule="evenodd" clip-rule="evenodd" d="M34.0263 40.3758C34.0263 40.3758 31.0583 41.8382 30.5719 42.1438C30.0855 42.451 29.8999 42.5918 29.6599 42.9438C28.9095 44.0494 29.1959 45.555 30.3015 46.3054C31.4071 47.0574 32.9111 46.771 33.6631 45.6654C33.9079 45.3054 33.9495 45.107 34.0743 44.4974C34.1991 43.8894 34.4071 40.6318 34.4071 40.6318C34.4295 40.3742 34.2583 40.2574 34.0263 40.3758" fill="#26A9E0"/>
<path fill-rule="evenodd" clip-rule="evenodd" d="M26.4637 48.3736C26.4637 48.3736 23.4957 49.8376 23.0093 50.1416C22.5213 50.4488 22.3373 50.5896 22.0973 50.9416C21.3453 52.0472 21.6333 53.5528 22.7389 54.3048C23.8445 55.0552 25.3485 54.7688 26.1005 53.6632C26.3453 53.3032 26.3869 53.1048 26.5101 52.4952C26.6349 51.8872 26.8429 48.6312 26.8429 48.6312C26.8653 48.372 26.6957 48.2552 26.4637 48.3736" fill="#26A9E0"/>
<path fill-rule="evenodd" clip-rule="evenodd" d="M34.0263 48.3736C34.0263 48.3736 31.0583 49.8376 30.5719 50.1416C30.0855 50.4488 29.8999 50.5896 29.6599 50.9416C28.9095 52.0472 29.1959 53.5528 30.3015 54.3048C31.4071 55.0552 32.9111 54.7688 33.6631 53.6632C33.9079 53.3032 33.9495 53.1048 34.0743 52.4952C34.1991 51.8872 34.4071 48.6312 34.4071 48.6312C34.4295 48.372 34.2583 48.2552 34.0263 48.3736" fill="#26A9E0"/>
<path fill-rule="evenodd" clip-rule="evenodd" d="M41.8122 40.3758C41.8122 40.3758 38.8442 41.8382 38.3578 42.1438C37.8714 42.4494 37.6858 42.5902 37.4474 42.9438C36.6954 44.0494 36.9818 45.555 38.0874 46.3054C39.193 47.0574 40.6986 46.7694 41.449 45.6654C41.6938 45.3054 41.7354 45.107 41.8602 44.4958C41.985 43.8878 42.193 40.6318 42.193 40.6318C42.2154 40.3726 42.0442 40.2574 41.8122 40.3758" fill="#26A9E0"/>
<path fill-rule="evenodd" clip-rule="evenodd" d="M41.8122 48.3736C41.8122 48.3736 38.8442 49.8376 38.3578 50.1416C37.8714 50.4472 37.6858 50.5896 37.4474 50.9416C36.6954 52.0472 36.9818 53.5528 38.0874 54.3048C39.193 55.0552 40.6986 54.7688 41.449 53.6632C41.6938 53.3032 41.7354 53.1048 41.8602 52.4952C41.985 51.8872 42.193 48.6296 42.193 48.6296C42.2154 48.3704 42.0442 48.2552 41.8122 48.3736" fill="#26A9E0"/>
</svg>
