<svg width="64" height="64" viewBox="0 0 64 64" fill="none" xmlns="http://www.w3.org/2000/svg">
<path fill-rule="evenodd" clip-rule="evenodd" d="M24.4019 40.3962C24.4019 40.3962 21.4339 41.8586 20.9475 42.1642C20.4595 42.4714 20.2755 42.6122 20.0355 42.9642C19.2851 44.0698 19.5715 45.5754 20.6771 46.3258C21.7827 47.0778 23.2883 46.7914 24.0371 45.6858C24.2835 45.3258 24.3235 45.1274 24.4483 44.5178C24.5731 43.9098 24.7811 40.6538 24.7811 40.6538C24.8051 40.3946 24.6339 40.2778 24.4019 40.3962" fill="#26A9E0"/>
<path fill-rule="evenodd" clip-rule="evenodd" d="M33.877 48.3945C33.877 48.3945 30.909 49.8569 30.4242 50.1625C29.9362 50.4681 29.7522 50.6105 29.5122 50.9625C28.7618 52.0681 29.0466 53.5737 30.1522 54.3241C31.2578 55.0761 32.7634 54.7897 33.5138 53.6841C33.7602 53.3241 33.8002 53.1257 33.925 52.5161C34.0498 51.9081 34.2578 48.6505 34.2578 48.6505C34.2802 48.3913 34.109 48.2761 33.877 48.3945" fill="#26A9E0"/>
<path fill-rule="evenodd" clip-rule="evenodd" d="M43.5301 40.3962C43.5301 40.3962 40.5621 41.8586 40.0757 42.1642C39.5877 42.4714 39.4037 42.6122 39.1637 42.9642C38.4133 44.0698 38.6997 45.5754 39.8053 46.3258C40.9109 47.0778 42.4165 46.7914 43.1669 45.6858C43.4133 45.3258 43.4533 45.1274 43.5765 44.5178C43.7013 43.9098 43.9093 40.6538 43.9093 40.6538C43.9333 40.3946 43.7621 40.2778 43.5301 40.3962" fill="#26A9E0"/>
<path fill-rule="evenodd" clip-rule="evenodd" d="M24.4019 48.3945C24.4019 48.3945 21.4339 49.8569 20.9475 50.1625C20.4595 50.4681 20.2755 50.6089 20.0355 50.9625C19.2851 52.0681 19.5715 53.5737 20.6771 54.3241C21.7827 55.0761 23.2883 54.7881 24.0371 53.6841C24.2835 53.3241 24.3235 53.1257 24.4483 52.5145C24.5731 51.9065 24.7811 48.6505 24.7811 48.6505C24.8051 48.3913 24.6339 48.2761 24.4019 48.3945" fill="#26A9E0"/>
<path fill-rule="evenodd" clip-rule="evenodd" d="M43.5301 48.3945C43.5301 48.3945 40.5621 49.8569 40.0757 50.1625C39.5877 50.4681 39.4037 50.6089 39.1637 50.9625C38.4133 52.0681 38.6997 53.5737 39.8053 54.3241C40.9109 55.0761 42.4165 54.7881 43.1669 53.6841C43.4133 53.3241 43.4533 53.1257 43.5765 52.5145C43.7013 51.9065 43.9093 48.6505 43.9093 48.6505C43.9333 48.3913 43.7621 48.2761 43.5301 48.3945" fill="#26A9E0"/>
<path fill-rule="evenodd" clip-rule="evenodd" d="M52.6612 40.3962C52.6612 40.3962 49.6932 41.8586 49.2068 42.1642C48.7188 42.4714 48.5348 42.6122 48.2948 42.9642C47.5444 44.0698 47.8308 45.5754 48.9364 46.3258C50.042 47.0778 51.5476 46.7914 52.298 45.6858C52.5444 45.3258 52.5844 45.1274 52.7076 44.5178C52.8324 43.9098 53.0404 40.6538 53.0404 40.6538C53.0644 40.3946 52.8932 40.2778 52.6612 40.3962" fill="#26A9E0"/>
<path fill-rule="evenodd" clip-rule="evenodd" d="M15.0941 40.3962C15.0941 40.3962 12.1261 41.8586 11.6397 42.1642C11.1533 42.4714 10.9677 42.6122 10.7277 42.9642C9.97727 44.0698 10.2637 45.5754 11.3709 46.3258C12.4749 47.0778 13.9805 46.7914 14.7309 45.6858C14.9773 45.3258 15.0173 45.1274 15.1421 44.5178C15.2669 43.9098 15.4749 40.6538 15.4749 40.6538C15.4973 40.3946 15.3261 40.2778 15.0941 40.3962" fill="#26A9E0"/>
<path fill-rule="evenodd" clip-rule="evenodd" d="M44.2692 16.8666C43.41 16.8666 42.5748 16.9786 41.7796 17.1866C40.2916 12.9642 36.2692 9.93697 31.5364 9.93697C25.7396 9.93697 21.0036 14.4794 20.6948 20.1994C20.338 20.153 19.978 20.1194 19.6116 20.1194C15.1012 20.1194 11.4436 23.777 11.4436 28.289C11.4436 32.7994 15.1012 36.4554 19.6116 36.4554H21.2388L27.8548 20.5722C28.1252 19.9322 28.778 19.5002 29.5652 19.4474L39.5876 19.5834C40.1844 19.5914 40.7476 19.8618 41.098 20.3066C41.5188 20.841 41.586 21.5514 41.2644 22.153L36.3556 31.4058L43.3444 31.2218C44.018 31.1898 44.6628 31.5018 45.0324 32.0474C45.4548 32.6666 45.4196 33.4858 44.9348 34.0762L42.9796 36.4554H44.2692C49.6788 36.4554 54.0644 32.0714 54.0644 26.6618C54.0644 21.2506 49.6788 16.8666 44.2692 16.8666" fill="#D0D2D3"/>
<path fill-rule="evenodd" clip-rule="evenodd" d="M42.4114 32.6016L33.9698 32.8288L39.445 22.2816C39.5314 22.112 39.5122 21.9168 39.3922 21.7616C39.2722 21.6048 39.0674 21.5104 38.845 21.5056L29.589 21.3744C29.3154 21.3936 29.0418 21.5216 28.949 21.7504L21.9122 39.0176C21.845 39.1872 21.8786 39.3744 22.0034 39.5216C22.1282 39.6656 22.3282 39.7504 22.5426 39.7504H22.5458L30.909 39.7008L27.4706 50.8432C27.389 51.1056 27.5474 51.3776 27.8434 51.4896C27.9298 51.5216 28.0226 51.5376 28.1138 51.5376C28.3314 51.5376 28.541 51.4496 28.6658 51.2912L42.9842 33.4656C43.1234 33.2928 43.1346 33.0688 43.013 32.888C42.893 32.704 42.6562 32.5856 42.4114 32.6016" fill="#FED503"/>
</svg>
