<svg width="64" height="64" viewBox="0 0 64 64" fill="none" xmlns="http://www.w3.org/2000/svg">
<path fill-rule="evenodd" clip-rule="evenodd" d="M43.6894 17.501C42.827 17.501 41.9902 17.613 41.1934 17.821C39.7006 13.5874 35.667 10.5538 30.923 10.5538C25.1102 10.5538 20.3614 15.1074 20.051 20.8418C19.6942 20.797 19.3342 20.7634 18.9646 20.7634C14.443 20.7634 10.7758 24.4306 10.7758 28.9538C10.7758 33.4754 14.443 37.1426 18.9646 37.1426H43.6894C49.1134 37.1426 53.5102 32.7474 53.5102 27.3218C53.5102 21.8978 49.1134 17.501 43.6894 17.501" fill="#D0D2D3"/>
<path fill-rule="evenodd" clip-rule="evenodd" d="M35.9355 53.1767L34.0043 52.4199L35.5099 50.9959C35.6427 50.8711 35.6475 50.6615 35.5227 50.5303L34.9147 49.8871C34.7915 49.7559 34.5819 49.7495 34.4507 49.8759L33.0811 51.1719L32.7211 49.3207C32.6859 49.1431 32.5115 49.0247 32.3355 49.0615L31.4667 49.2295C31.2891 49.2647 31.1723 49.4375 31.2059 49.6151L31.5675 51.4679L29.8107 50.7799C29.6427 50.7127 29.4507 50.7975 29.3851 50.9655L29.0619 51.7895C28.9963 51.9559 29.0795 52.1479 29.2491 52.2135L31.1803 52.9703L29.6731 54.3975C29.5419 54.5223 29.5371 54.7319 29.6619 54.8631L30.2699 55.5047C30.3931 55.6359 30.6027 55.6423 30.7355 55.5175L32.1035 54.2199L32.4651 56.0727C32.5003 56.2503 32.6731 56.3655 32.8507 56.3319L33.7195 56.1623C33.8971 56.1287 34.0139 55.9543 33.9787 55.7767L33.6187 53.9271L35.3739 54.6119C35.5419 54.6791 35.7339 54.5959 35.7995 54.4263L36.1227 53.6039C36.1883 53.4343 36.1035 53.2423 35.9355 53.1767" fill="#26A9E0"/>
<path fill-rule="evenodd" clip-rule="evenodd" d="M35.9355 44.3267L34.0043 43.5699L35.5099 42.1443C35.6427 42.0211 35.6475 41.8115 35.5227 41.6803L34.9147 41.0371C34.7915 40.9059 34.5819 40.8995 34.4507 41.0259L33.0811 42.3219L32.7211 40.4691C32.6859 40.2931 32.5115 40.1747 32.3355 40.2099L31.4667 40.3795C31.2891 40.4147 31.1723 40.5875 31.2059 40.7635L31.5675 42.6163L29.8107 41.9283C29.6427 41.8627 29.4507 41.9475 29.3851 42.1139L29.0619 42.9395C28.9963 43.1059 29.0795 43.2979 29.2491 43.3635L31.1803 44.1203L29.6731 45.5475C29.5419 45.6723 29.5371 45.8803 29.6619 46.0131L30.2699 46.6547C30.3931 46.7859 30.6027 46.7923 30.7355 46.6675L32.1035 45.3699L32.4651 47.2227C32.5003 47.3987 32.6731 47.5155 32.8507 47.4819L33.7195 47.3123C33.8971 47.2771 34.0139 47.1043 33.9787 46.9267L33.6187 45.0755L35.3739 45.7619C35.5419 45.8275 35.7339 45.7459 35.7995 45.5763L36.1227 44.7539C36.1883 44.5843 36.1035 44.3923 35.9355 44.3267" fill="#26A9E0"/>
</svg>
