<svg width="64" height="64" viewBox="0 0 64 64" fill="none" xmlns="http://www.w3.org/2000/svg">
<path fill-rule="evenodd" clip-rule="evenodd" d="M12.7152 30.3205H52.1472C53.1872 30.3205 54.04 29.5685 54.04 28.6501C54.04 27.7317 53.1872 26.9813 52.1472 26.9813H12.7152C11.6736 26.9813 10.8224 27.7317 10.8224 28.6501C10.8224 29.5685 11.6736 30.3205 12.7152 30.3205" fill="#26A9E0"/>
<path fill-rule="evenodd" clip-rule="evenodd" d="M52.1465 34.4736H12.7146C11.6746 34.4736 10.8218 35.2256 10.8218 36.144C10.8218 37.0624 11.6746 37.8128 12.7146 37.8128H52.1465C53.1881 37.8128 54.0393 37.0624 54.0393 36.144C54.0393 35.2256 53.1881 34.4736 52.1465 34.4736" fill="#26A9E0"/>
<path fill-rule="evenodd" clip-rule="evenodd" d="M46.9411 41.8875H17.9203C16.8803 41.8875 16.0275 42.6395 16.0275 43.5579C16.0275 44.4747 16.8803 45.2267 17.9203 45.2267H46.9411C47.9827 45.2267 48.8339 44.4747 48.8339 43.5579C48.8339 42.6395 47.9827 41.8875 46.9411 41.8875" fill="#26A9E0"/>
<path fill-rule="evenodd" clip-rule="evenodd" d="M17.9208 22.9845H46.9416C47.9832 22.9845 48.8344 22.2325 48.8344 21.3141C48.8344 20.3957 47.9832 19.6437 46.9416 19.6437H17.9208C16.8808 19.6437 16.028 20.3957 16.028 21.3141C16.028 22.2325 16.8808 22.9845 17.9208 22.9845" fill="#26A9E0"/>
</svg>
